<svg xmlns="http://www.w3.org/2000/svg" version="1.1" xmlns:xlink="http://www.w3.org/1999/xlink" xmlns:svgjs="http://svgjs.com/svgjs" width="512" height="512" x="0" y="0" viewBox="0 0 512 512" style="enable-background:new 0 0 512 512" xml:space="preserve" class=""><g><path d="M486.4 42.667H25.6c-14.138 0-25.6 11.462-25.6 25.6v153.6a8.533 8.533 0 0 0 17.066 0v-153.6a8.533 8.533 0 0 1 8.533-8.533h17.067V128c0 18.851 15.282 34.133 34.133 34.133h358.4c18.851 0 34.133-15.282 34.133-34.133V59.733H486.4a8.533 8.533 0 0 1 8.533 8.533v179.2c-.028 23.552-19.114 42.638-42.667 42.667h-25.6v-17.067c0-18.851-15.282-34.133-34.133-34.133h-95.061a8.533 8.533 0 0 0 0 17.066h95.061c9.426 0 17.067 7.641 17.067 17.067v17.067h-95.744a8.533 8.533 0 0 0 0 17.066h138.411c32.974-.038 59.696-26.759 59.733-59.733v-179.2c0-14.138-11.461-25.599-25.6-25.599zM452.267 128c0 9.426-7.641 17.067-17.067 17.067H76.8c-9.426 0-17.067-7.641-17.067-17.067V59.733h392.533V128z" fill="#b56952" data-original="#000000" class=""></path><path d="M85.333 128h341.333c4.713 0 8.533-3.82 8.533-8.533s-3.82-8.533-8.533-8.533H85.333a8.533 8.533 0 0 0 0 17.066zM85.333 93.867h341.333a8.533 8.533 0 0 0 0-17.066H85.333a8.533 8.533 0 0 0 0 17.066z" fill="#b56952" data-original="#000000" class=""></path><circle cx="426.667" cy="213.333" r="8.533" fill="#b56952" data-original="#000000" class=""></circle><circle cx="460.8" cy="213.333" r="8.533" fill="#b56952" data-original="#000000" class=""></circle><path d="M307.2 443.733a8.533 8.533 0 0 0 17.066 0 16.546 16.546 0 0 1 6.272-12.706 32.708 32.708 0 0 0 0-48.564 15.983 15.983 0 0 1 0-25.386 33.059 33.059 0 0 0 10.795-24.277c0-4.713-3.82-8.533-8.533-8.533s-8.533 3.82-8.533 8.533a16.506 16.506 0 0 1-6.272 12.689 32.691 32.691 0 0 0 0 48.546 16.008 16.008 0 0 1 0 25.412 33.125 33.125 0 0 0-10.795 24.286zM366.933 443.733a8.533 8.533 0 0 0 17.066 0 16.546 16.546 0 0 1 6.272-12.706 32.708 32.708 0 0 0 0-48.564 15.983 15.983 0 0 1 0-25.386 33.059 33.059 0 0 0 10.795-24.277c0-4.713-3.82-8.533-8.533-8.533S384 328.087 384 332.8a16.506 16.506 0 0 1-6.272 12.689 32.691 32.691 0 0 0 0 48.546 16.008 16.008 0 0 1 0 25.412 33.13 33.13 0 0 0-10.795 24.286zM418.133 443.733a8.533 8.533 0 0 0 17.066 0 16.546 16.546 0 0 1 6.272-12.706 32.708 32.708 0 0 0 0-48.564 15.983 15.983 0 0 1 0-25.386 33.059 33.059 0 0 0 10.795-24.277 8.533 8.533 0 0 0-17.066 0 16.506 16.506 0 0 1-6.272 12.689 32.691 32.691 0 0 0 0 48.546 16.008 16.008 0 0 1 0 25.412 33.13 33.13 0 0 0-10.795 24.286zM145.067 469.333c80.118 0 145.067-64.949 145.067-145.067S225.185 179.2 145.067 179.2 0 244.149 0 324.267c.089 80.081 64.986 144.977 145.067 145.066zm0-273.066c70.692 0 128 57.308 128 128s-57.308 128-128 128-128-57.308-128-128c.08-70.66 57.34-127.92 128-128z" fill="#b56952" data-original="#000000" class=""></path><path d="m100.267 319.514 30.993 10.061-19.14 26.342-46.635 7.39a8.534 8.534 0 1 0 2.68 16.853l29.773-4.693-16.017 21.99c-2.771 3.813-1.927 9.15 1.886 11.921s9.15 1.927 11.921-1.886l16.06-22.007 4.71 29.764a8.533 8.533 0 0 0 8.414 7.202c.452.001.903-.036 1.348-.111a8.534 8.534 0 0 0 7.1-9.754l-7.39-46.635 19.098-26.325 19.14 26.351-7.39 46.635a8.534 8.534 0 0 0 7.1 9.754c.445.075.897.112 1.348.111a8.533 8.533 0 0 0 8.414-7.202l4.71-29.764 15.991 22.007a8.552 8.552 0 0 0 13.833-10.061l-16.017-21.99 29.773 4.719a8.535 8.535 0 0 0 9.412-11.498 8.534 8.534 0 0 0-6.732-5.355l-46.635-7.39-19.14-26.342 30.993-10.061 42.044 21.427a8.535 8.535 0 0 0 12.619-8.012 8.533 8.533 0 0 0-4.87-7.185l-26.837-13.653 25.899-8.405a8.532 8.532 0 0 0 3.367-14.665 8.534 8.534 0 0 0-8.632-1.548l-25.941 8.414 13.653-26.88a8.536 8.536 0 0 0-15.207-7.757l-21.444 42.086-30.916 9.984v-32.597l33.382-33.382a8.534 8.534 0 0 0-12.049-12.041L153.6 256.657v-27.255a8.533 8.533 0 0 0-17.066 0v27.238L115.2 235.307a8.534 8.534 0 1 0-12.066 12.066l33.399 33.374v32.597l-30.959-10.052-21.444-42.087a8.536 8.536 0 0 0-15.207 7.757l13.696 26.88-25.941-8.414a8.534 8.534 0 1 0-5.265 16.213l25.899 8.405L50.475 325.7a8.533 8.533 0 0 0 7.748 15.198z" fill="#b56952" data-original="#000000" class=""></path></g></svg>