<svg xmlns="http://www.w3.org/2000/svg" version="1.1" xmlns:xlink="http://www.w3.org/1999/xlink" xmlns:svgjs="http://svgjs.com/svgjs" width="512" height="512" x="0" y="0" viewBox="0 0 512.001 512" style="enable-background:new 0 0 512 512" xml:space="preserve" class=""><g><path d="M498.227 440.582c9.484-13.406 14.328-29.55 13.722-46.16-.691-19.05-8.504-36.977-21.996-50.465l-33.46-33.46c6.89-25.333 8.917-51.427 6.007-77.645-.457-4.114-4.164-7.075-8.281-6.625a7.498 7.498 0 0 0-6.625 8.28c2.379 21.427 1.195 42.763-3.485 63.602l-10.734-10.734c-5.504-5.504-12.828-8.535-20.617-8.535-7.809 0-15.133 3.031-20.625 8.539-11.36 11.371-11.36 29.871.004 41.234l28.18 28.168a194.274 194.274 0 0 1-28.02 35.45c-46.89 46.89-114.25 66.175-178.445 51.847l10.75-10.75c5.503-5.508 8.535-12.824 8.535-20.61 0-7.804-3.035-15.128-8.54-20.62-11.363-11.36-29.859-11.36-41.238 0l-28.214 28.21a193.117 193.117 0 0 1-35.56-28.078 194.065 194.065 0 0 1-29.3-37.546c-.078-.16-.137-.329-.23-.48a189.778 189.778 0 0 1-8.63-16.38 190.474 190.474 0 0 1-9.484-24.469 7.635 7.635 0 0 0-.437-1.074c-7.313-23.972-9.879-48.82-7.613-73.879a7.499 7.499 0 0 0-6.793-8.144c-4.114-.38-7.77 2.668-8.145 6.793-2.348 25.906.106 51.61 7.27 76.472L23.926 345.82c-13.422 13.418-21.23 31.242-21.992 50.184-.664 16.512 4.062 32.59 13.398 45.98l-.75.75c-5.64 5.641-8.746 13.137-8.746 21.11s3.105 15.468 8.746 21.11l13.906 13.905c5.817 5.82 13.461 8.73 21.106 8.73s15.285-2.91 21.105-8.73l.672-.672a74.76 74.76 0 0 0 43.297 13.786c4.605 0 9.25-.422 13.875-1.278a7.5 7.5 0 0 0 6.012-8.738c-.754-4.074-4.676-6.758-8.739-6.012-15.312 2.832-30.808-.293-43.629-8.57l15.797-15.797c3.875-3.875 6.551-8.625 7.848-13.808 11.078 7.69 26.445 6.617 36.309-3.25l19.43-19.426.038-.04 32.352-32.347c5.527-5.52 14.516-5.52 20.039.004 2.668 2.66 4.137 6.215 4.137 10.008a14.06 14.06 0 0 1-4.145 10.004l-20 20c-.031.027-.054.054-.082.082l-36.5 36.496a61.372 61.372 0 0 1-6.332 5.52 7.495 7.495 0 0 0-1.457 10.503 7.482 7.482 0 0 0 5.984 2.977 7.464 7.464 0 0 0 4.52-1.52 75.577 75.577 0 0 0 7.89-6.875l33.45-33.441a208.15 208.15 0 0 0 54.457 7.258c19.52 0 38.871-2.766 57.496-8.125l32.434 32.445c13.421 13.418 31.246 21.227 50.191 21.984 1.02.043 2.035.063 3.05.063 15.434 0 30.372-4.707 42.934-13.465l.758.758c5.817 5.816 13.461 8.726 21.106 8.726s15.285-2.91 21.105-8.726l13.906-13.906c5.641-5.641 8.746-13.137 8.746-21.11 0-7.972-3.105-15.469-8.746-21.105zM16.918 396.609c.61-15.168 6.863-29.437 17.61-40.183l26.98-26.977a206.518 206.518 0 0 0 12.687 27.36l-14.89 14.886c-5.371 5.364-8.328 12.504-8.328 20.102 0 5.715 1.671 11.172 4.789 15.808a29.68 29.68 0 0 0-13.903 7.848l-15.718 15.719c-6.477-10.242-9.723-22.254-9.227-34.563zm70.46 64.364-21.8 21.797c0 .003-.004.003-.008.007l-5.476 5.477c-5.79 5.789-15.211 5.789-21.004 0l-13.906-13.906a14.76 14.76 0 0 1-4.352-10.504c0-3.965 1.547-7.696 4.352-10.5l5.363-5.364c.02-.02.039-.035.055-.054l21.867-21.863a14.802 14.802 0 0 1 10.5-4.344c3.785 0 7.566 1.437 10.457 4.304l13.285 13.278.668.668a14.753 14.753 0 0 1 4.348 10.5 14.74 14.74 0 0 1-4.348 10.504zm44.157-17.059a13.335 13.335 0 0 1-9.496 3.938c-3.586 0-6.96-1.399-9.496-3.938l-14.484-14.48s-.075-.07-.075-.075l-6.476-6.476-7.43-7.426c-.015-.016-.035-.031-.05-.047L69.91 401.297a13.337 13.337 0 0 1-3.937-9.5c0-3.586 1.398-6.957 3.937-9.492l12.309-12.309a209.024 209.024 0 0 0 23.215 29.184l-3.856 3.855a7.497 7.497 0 0 0 5.305 12.8 7.48 7.48 0 0 0 5.305-2.194l3.98-3.98a208.195 208.195 0 0 0 28.105 21.519zm271.211-145.937c2.66-2.668 6.215-4.137 10.008-4.137 3.789 0 7.344 1.473 10.016 4.14l56.578 56.583c20.164 20.164 23.105 51.796 8.07 75.21l-15.797-15.796a29.703 29.703 0 0 0-13.808-7.825c3.3-4.726 5.085-10.34 5.085-16.226 0-7.594-2.957-14.73-8.328-20.102l-51.828-51.816c-5.52-5.52-5.52-14.504.004-20.031zm-3.582 108.503 3.906 3.907c1.465 1.46 3.387 2.195 5.305 2.195s3.84-.734 5.305-2.2a7.5 7.5 0 0 0-.004-10.605l-4.04-4.039a208.756 208.756 0 0 0 21.544-28.09l12.785 12.782a13.324 13.324 0 0 1 3.933 9.496c0 3.586-1.394 6.957-3.933 9.496l-14.52 14.52-.039.035-13.906 13.906c-.016.012-.027.027-.04.039l-14.124 14.129c-5.238 5.234-13.758 5.234-19 0l-12.395-12.399a207.792 207.792 0 0 0 29.223-23.172zm-2.523 88.563c-15.168-.61-29.438-6.863-40.184-17.605l-27.059-27.063a206.81 206.81 0 0 0 14.829-6.246 205.7 205.7 0 0 0 12.566-6.406l14.937 14.933c9.747 9.742 24.856 10.918 35.895 3.54 1.29 5.218 3.973 10.007 7.871 13.906l15.711 15.707c-10.246 6.476-22.266 9.722-34.566 9.234zm91.656-22.176-13.91 13.906c-5.785 5.79-15.207 5.793-21 0l-27.282-27.28a14.74 14.74 0 0 1-4.351-10.5c0-3.958 1.539-7.68 4.332-10.481l13.945-13.946a14.806 14.806 0 0 1 10.48-4.324c3.801 0 7.606 1.446 10.5 4.34l21.93 21.93c.004 0 .008.004.008.008l5.348 5.343c2.808 2.805 4.351 6.535 4.351 10.504s-1.546 7.696-4.351 10.5zm0 0" fill="#b56952" data-original="#000000" class=""></path><path d="M78.633 224.54c5.504 5.503 12.824 8.534 20.61 8.534 7.808 0 15.132-3.031 20.624-8.539 11.36-11.37 11.36-29.87-.004-41.234L91.56 155c7.328-11.914 15.996-23.055 25.847-33.223.211-.172.418-.351.617-.55a7.51 7.51 0 0 0 .672-.786l.887-.898a193.586 193.586 0 0 1 37.078-28.996 7.587 7.587 0 0 0 1.121-.543 190.461 190.461 0 0 1 16.356-8.629 191.92 191.92 0 0 1 24.48-9.48c.438-.137.852-.32 1.25-.532 32.125-9.734 65.88-10.941 98.453-3.605l-10.87 10.87c-5.512 5.509-8.548 12.829-8.548 20.61 0 7.797 3.04 15.121 8.547 20.617 11.367 11.368 29.864 11.368 41.227 0l28.27-28.265a193.074 193.074 0 0 1 35.343 27.953c12.063 12.07 22.45 25.605 30.875 40.227 3.293 5.726 12.668 25.53 16.73 38.02.106.554.278 1.093.508 1.612.004.012.008.02.008.028 1.508 4.98 4.492 4.449 6.848 4.449h.008a7.495 7.495 0 0 0 5.296-2.195l35.56-35.547c13.421-13.422 21.23-31.242 21.987-50.188.664-16.508-4.062-32.59-13.398-45.98l.75-.75c5.637-5.637 8.742-13.133 8.742-21.11 0-7.972-3.105-15.468-8.742-21.105l-13.906-13.906c-11.64-11.637-30.575-11.637-42.215 0l-.672.672C427.262 4.285 411.128-.562 394.496.05c-19.055.696-36.98 8.509-50.473 22L310.695 55.38c-36.902-10.059-75.527-9.79-112.28.773l-32.27-32.277c-13.422-13.418-31.247-21.227-50.192-21.984-16.492-.668-32.59 4.062-45.984 13.398l-.75-.754c-11.64-11.637-30.574-11.633-42.215 0L13.102 28.441C7.46 34.078 4.355 41.574 4.355 49.547c0 7.976 3.106 15.473 8.747 21.11l.675.675C4.29 84.742-.55 100.887.051 117.496c.691 19.05 8.504 36.973 21.996 50.465zM413.746 82.28c.102.102.203.211.309.313l28.074 28.062a13.35 13.35 0 0 1 3.937 9.5c0 3.59-1.394 6.961-3.937 9.496l-12.332 12.332a209.116 209.116 0 0 0-23.188-29.21l3.856-3.852a7.497 7.497 0 0 0 0-10.606 7.497 7.497 0 0 0-10.606 0l-3.964 3.965a208.05 208.05 0 0 0-28.079-21.554l12.688-12.688c5.238-5.238 13.766-5.238 19.004 0zm81.379 33.067c-.605 15.168-6.86 29.433-17.605 40.18l-27.18 27.167c-3.852-10.21-9.504-21.664-12.57-27.468l14.96-14.965c5.375-5.367 8.333-12.504 8.333-20.102 0-5.715-1.672-11.168-4.79-15.808A29.666 29.666 0 0 0 470.18 96.5l15.715-15.715c6.48 10.246 9.726 22.254 9.23 34.563zm-32.676-95.989c3.805 0 7.606 1.45 10.5 4.344l13.91 13.906c2.805 2.805 4.348 6.532 4.348 10.5s-1.543 7.7-4.348 10.504l-5.457 5.457c-.015.016-.035.032-.047.047l-21.78 21.778c-5.79 5.789-15.212 5.789-21 0l-13.907-13.907c-5.793-5.793-5.793-15.215-.004-21.004l27.285-27.28a14.785 14.785 0 0 1 10.5-4.345zM354.633 32.652c20.168-20.168 51.804-23.109 75.226-8.07l-15.8 15.797a29.649 29.649 0 0 0-7.829 13.816c-11.078-7.703-26.46-6.632-36.332 3.239l-51.82 51.816c-5.52 5.52-14.5 5.52-20.027-.004a14.032 14.032 0 0 1-4.145-10.008c0-3.773 1.473-7.328 4.153-10.008zm-286.59 98.832a13.324 13.324 0 0 1-3.934-9.496c0-3.586 1.395-6.957 3.934-9.496l42.633-42.625c5.238-5.238 13.758-5.238 18.996 0l12.25 12.246a209.166 209.166 0 0 0-29.207 23.2l-3.785-3.786a7.504 7.504 0 0 0-10.606 0 7.51 7.51 0 0 0 0 10.61l3.899 3.894a207.87 207.87 0 0 0-21.532 28.102zm47.312-114.609c15.168.605 29.442 6.86 40.188 17.605l26.945 26.95a207.364 207.364 0 0 0-27.367 12.672l-14.844-14.844c-9.742-9.742-24.859-10.918-35.898-3.531-1.29-5.223-3.973-10.012-7.875-13.91L80.789 26.104c10.25-6.48 22.266-9.726 34.566-9.23zM23.707 39.047 37.613 25.14a14.798 14.798 0 0 1 10.5-4.34c3.805 0 7.606 1.445 10.504 4.34l5.434 5.437c.027.024.054.055.082.078l21.77 21.766c2.804 2.808 4.347 6.535 4.347 10.504s-1.543 7.695-4.348 10.5l-13.91 13.906c-5.789 5.79-15.21 5.793-21.004 0L23.707 60.051a14.743 14.743 0 0 1-4.352-10.504 14.74 14.74 0 0 1 4.352-10.5zm.883 43.098 15.793 15.793a29.69 29.69 0 0 0 13.812 7.828c-3.3 4.726-5.086 10.336-5.086 16.222 0 7.594 2.961 14.735 8.328 20.102l51.82 51.816c5.52 5.52 5.52 14.504-.003 20.031-2.664 2.668-6.219 4.137-10.012 4.137a14.056 14.056 0 0 1-10.004-4.14l-56.586-56.582c-20.168-20.165-23.105-51.793-8.062-75.207zM154.957 282.402l-36.809 32.625c-5.808 5.149-6.347 14.063-1.199 19.871l20.281 22.88c.024.023.043.05.063.077.02.02.035.036.055.051l19.453 21.946c2.773 3.132 6.648 4.73 10.539 4.73 3.32 0 6.652-1.164 9.328-3.535l36.809-32.629c5.812-5.145 6.347-14.063 1.199-19.871l-39.848-44.95c-5.148-5.808-14.062-6.343-19.871-1.195zm9.258 11.836 14.46 16.309-35.202 31.664-14.688-16.57zm3.195 74.973-13.984-15.777 35.199-31.66 14.215 16.03zm0 0" fill="#b56952" data-original="#000000" class=""></path><path d="m338.188 133.531-52.801 46.797a15.142 15.142 0 0 0-5.098 10.48 15.123 15.123 0 0 0 3.805 11.012l38.328 43.235a15.126 15.126 0 0 0 11.41 5.125c3.723 0 7.273-1.344 10.078-3.832l52.8-46.801a15.126 15.126 0 0 0 5.099-10.477 15.11 15.11 0 0 0-3.805-11.015l-38.324-43.23c-5.57-6.282-15.211-6.86-21.493-1.294zm48.648 54.637c-.004.094-.047.133-.074.152v.004l-52.801 46.797c-.027.024-.059.07-.16.059-.094-.004-.133-.051-.156-.075l-38.325-43.234a.2.2 0 0 1-.058-.16c.008-.094.05-.133.074-.156l52.8-46.797a.224.224 0 0 1 .317.015l38.328 43.235c.024.023.063.07.055.16zm0 0" fill="#b56952" data-original="#000000" class=""></path></g></svg>