<svg xmlns="http://www.w3.org/2000/svg" version="1.1" xmlns:xlink="http://www.w3.org/1999/xlink" xmlns:svgjs="http://svgjs.com/svgjs" width="512" height="512" x="0" y="0" viewBox="0 0 512 512" style="enable-background:new 0 0 512 512" xml:space="preserve" class=""><g><path d="M5.149 200.338c-6.494-5.993-6.901-16.115-.908-22.609 31.758-34.416 69.441-61.526 112.003-80.577C160.32 77.424 207.34 67.421 256 67.421s95.68 10.003 139.755 29.731c42.562 19.051 80.246 46.161 112.003 80.577 5.992 6.494 5.586 16.617-.908 22.609a15.946 15.946 0 0 1-10.847 4.241 15.959 15.959 0 0 1-11.763-5.149C425.593 135.873 342.402 99.421 256 99.421S86.407 135.873 27.759 199.43c-5.993 6.494-16.116 6.9-22.61.908zm406.249 71.519c5.872 6.604 15.984 7.197 22.588 1.325s7.197-15.985 1.325-22.588C389.791 199.4 324.434 170.04 256 170.04c-68.435 0-133.791 29.361-179.311 80.554-5.872 6.604-5.279 16.717 1.325 22.589a15.942 15.942 0 0 0 10.626 4.043c4.41 0 8.802-1.813 11.963-5.368 39.453-44.37 96.093-69.817 155.397-69.817 59.304-.001 115.944 25.446 155.398 69.816zm-73.304 72.182a15.967 15.967 0 0 0 12.48 5.977c3.518 0 7.059-1.155 10.014-3.53 6.887-5.536 7.983-15.607 2.447-22.495-26.221-32.623-65.234-51.333-107.035-51.333s-80.813 18.71-107.036 51.333c-5.536 6.887-4.441 16.958 2.447 22.495s16.959 4.44 22.495-2.447c20.117-25.027 50.039-39.38 82.094-39.38 32.056-.001 61.978 14.353 82.094 39.38zM256 375.277c19.106 0 34.651 15.544 34.651 34.651 0 19.106-15.544 34.65-34.651 34.65s-34.651-15.544-34.651-34.65 15.544-34.651 34.651-34.651zm0 32c-1.437 0-2.651 1.214-2.651 2.651s1.214 2.65 2.651 2.65 2.651-1.214 2.651-2.65c-.001-1.436-1.214-2.651-2.651-2.651z" fill="#b56952" data-original="#000000"></path></g></svg>