<svg id="Glyph" height="512" viewBox="0 0 64 64" width="512" xmlns="http://www.w3.org/2000/svg"><path d="m59.67954 5.16896c-.04995-.4496-.41965-.81936-.86931-.86931-3.83695-.4596-7.65395-.3497-11.35105.31976-7.72813 1.32499-15.36844 5.52438-21.29322 11.2512-.54725.52082-1.85231 1.75308-2.37816 2.25818-3.11882 3.60524-6.71341 8.38101-8.80297 12.42029-.30145.61201-.00418 1.07657.50956 1.51873.47956.47964 1.39888 1.3889 2.56794 2.55802 4.46899 4.47996 9.34856 9.35768 13.84909 13.85909 0 0 .33976.3397.33976.3397.47414.48434 1.14946.26723 1.63865-.07996 2.3282-1.29896 5.51569-3.27738 8.87304-5.99521 11.32772-8.87146 18.91913-23.00767 16.91668-37.58048zm-12.99972 23.48152c-4.93417 5.04444-13.78093 1.38964-13.69917-5.67567-.06599-7.07385 8.73541-10.72252 13.69922-5.67525 3.13744 3.12741 3.13744 8.22338-.00005 11.35092z"/><path d="m5.90191 33.2269c.03995 0 .07989 0 .1199-.01l7.16435-.86931c-.53347-1.01253-.34848-2.23838.27981-3.18748.49955-.91927 1.31891-2.3282 2.45803-4.05682 1.88941-2.94631 4.2199-5.76134 6.45496-8.38342-.00002 0 1.43886-1.36892 1.43886-1.36892-11.97523-.11918-18.105 10.40746-18.89497 16.72701-.11483.5772.38142 1.16806.97907 1.14893z"/><path d="m44.02187 44.2982c-2.84773 2.30818-5.92533 4.38656-9.16277 6.19514-.92142.63201-2.20829.85398-3.22745.2997 0 .00005-.86931 7.1644-.86931 7.1644-.08514.57001.40514 1.13327.98922 1.1191 1.88768-.27609 10.39338-1.98325 14.75836-10.1619 1.36801-2.56619 2.17039-6.00998 2.12827-8.77321-1.455 1.45611-2.96158 2.81889-4.61633 4.15678z"/><path d="m26.45568 45.85697c-2.97691-2.98499-6.40486-6.40884-9.33262-9.34269 0 0-.67946 1.37892-.67946 1.37892-.56956 1.14912-.34976 2.53804.55956 3.4473l5.63558 5.63558c.91647.90908 2.30594 1.14091 3.44724.55955 0 0 1.37892-.67945 1.37892-.67945-.33356-.33222-.65955-.66324-1.00922-.99921z"/><path d="m17.11305 46.90614c-6.90431-6.14353-13.00926 5.97238-13.10953 12.01046-.05212.57463.48145 1.11002 1.05903 1.05925 6.02066-.1013 18.10715-6.17289 12.0505-13.06971z"/><path d="m41.00429 16.94973c-7.94257.20678-7.99174 11.82173.00013 12.05052 7.99433-.23414 7.94235-11.8441-.00013-12.05052z"/></svg>