<svg xmlns="http://www.w3.org/2000/svg" version="1.1" xmlns:xlink="http://www.w3.org/1999/xlink" xmlns:svgjs="http://svgjs.com/svgjs" width="512" height="512" x="0" y="0" viewBox="0 0 256 256" style="enable-background:new 0 0 512 512" xml:space="preserve" class=""><g><path fill="#ffffff" d="M108.027 118.826c-1.861 0-3.747-.457-5.491-1.419l-28.123-15.521a11.385 11.385 0 0 1-5.378-6.612L58.542 61.272c-1.854-6.009 1.513-12.383 7.522-14.237s12.383 1.513 14.237 7.522l9.139 29.612 24.1 13.3c5.506 3.039 7.505 9.965 4.467 15.471a11.386 11.386 0 0 1-9.98 5.886z" data-original="#63bce7" class="" opacity="1"></path><path fill="#ffffff" d="M108.027 118.826c4.012 0 7.903-2.125 9.979-5.886 3.038-5.505 1.038-12.432-4.467-15.471l-5.953-3.285-9.159 20.955 4.109 2.268a11.332 11.332 0 0 0 5.491 1.419z" data-original="#f8af23" class="" opacity="1"></path><path fill="#ffffff" d="M85.279 242.742H54.404V132.289h30.875z" data-original="#cecece" class="" opacity="1"></path><path fill="#ffffff" d="M60.469 242.742H29.594V132.289h30.875z" data-original="#cecece" class="" opacity="1"></path><path fill="#ffffff" d="M29.593 132.289h14v110.453h-14z" data-original="#afafaf" class="" opacity="1"></path><circle cx="57.436" cy="24.047" r="22.478" fill="#ffffff" data-original="#f8af23" class="" opacity="1"></circle><path fill="#ffffff" d="M57.436 1.568c2.631 0 5.154.456 7.5 1.287-8.726 3.088-14.978 11.408-14.978 21.192s6.253 18.103 14.978 21.192a22.44 22.44 0 0 1-7.5 1.287c-12.415 0-22.479-10.064-22.479-22.478.001-12.416 10.065-22.48 22.479-22.48z" data-original="#f87023" class="" opacity="1"></path><path fill="#ffffff" d="M88.738 132.289H26.134v-75.87c0-5.464 4.43-9.894 9.894-9.894h34.711c9.941 0 18 8.059 18 18v67.764z" data-original="#63bce7" class="" opacity="1"></path><path fill="#ffffff" d="M36.028 46.525h15c-5.464 0-9.894 4.43-9.894 9.894v75.87h-15v-75.87c0-5.464 4.43-9.894 9.894-9.894z" data-original="#6377e7" class="" opacity="1"></path><path fill="#ffffff" d="M103.081 133.736a11.35 11.35 0 0 1-4.48-.924l-45.895-19.669a11.382 11.382 0 0 1-5.865-5.722L26.326 62.658c-2.62-5.717-.109-12.475 5.607-15.094 5.715-2.62 12.474-.109 15.094 5.607l18.685 40.77 41.86 17.94c5.78 2.477 8.457 9.171 5.98 14.951a11.391 11.391 0 0 1-10.471 6.904z" data-original="#63bce7" class="" opacity="1"></path><path fill="#ffffff" d="M103.081 133.736a11.39 11.39 0 0 0 10.471-6.904c2.477-5.78-.201-12.474-5.98-14.951l-3.256-1.395-9.69 20.623 3.976 1.704c1.462.626 2.983.923 4.479.923z" data-original="#f8af23" class="" opacity="1"></path><path fill="#ffffff" d="M125.882 74.359a11.338 11.338 0 0 0 4.665 3.225l30.136 11.119a11.39 11.39 0 0 0 8.519-.257l32.584-14.305c5.758-2.528 8.376-9.245 5.848-15.002-2.528-5.758-9.244-8.377-15.002-5.848l-28.376 12.458-25.824-9.529c-5.9-2.177-12.447.842-14.624 6.741a11.382 11.382 0 0 0 2.074 11.398z" data-original="#cecece" class="" opacity="1"></path><path fill="#ffffff" d="M125.882 74.359a11.388 11.388 0 0 1-2.076-11.399c2.177-5.899 8.724-8.918 14.624-6.741l6.378 2.354-9.859 20.636-4.403-1.625a11.341 11.341 0 0 1-4.664-3.225z" data-original="#f8af23" class="" opacity="1"></path><path fill="#ffffff" d="M170.721 132.289h30.875v110.453h-30.875z" data-original="#707070" class="" opacity="1"></path><path fill="#ffffff" d="M195.531 132.289h30.875v110.453h-30.875z" data-original="#707070" class="" opacity="1"></path><path fill="#ffffff" d="M212.407 132.289h14v110.453h-14z" data-original="#9e9e9e" class="" opacity="1"></path><path fill="#ffffff" d="M167.262 132.289h62.604v-75.87c0-5.464-4.43-9.894-9.894-9.894h-34.711c-9.941 0-18 8.059-18 18v67.764z" data-original="#cecece" class="" opacity="1"></path><path fill="#ffffff" d="M219.972 46.525h-15c5.464 0 9.894 4.43 9.894 9.894v75.87h15v-75.87c0-5.464-4.43-9.894-9.894-9.894z" data-original="#e2e2e2" class="" opacity="1"></path><path fill="#ffffff" d="M152.919 133.736a11.35 11.35 0 0 0 4.48-.924l45.895-19.669a11.382 11.382 0 0 0 5.865-5.722l20.515-44.763c2.62-5.717.109-12.475-5.607-15.094-5.715-2.62-12.474-.109-15.094 5.607l-18.685 40.77-41.86 17.94c-5.78 2.477-8.457 9.171-5.98 14.951a11.391 11.391 0 0 0 10.471 6.904z" data-original="#cecece" class="" opacity="1"></path><path fill="#ffffff" d="M152.919 133.736a11.39 11.39 0 0 1-10.471-6.904c-2.477-5.78.201-12.474 5.98-14.951l3.256-1.395 9.69 20.623-3.976 1.704a11.358 11.358 0 0 1-4.479.923z" data-original="#f8af23" class="" opacity="1"></path><circle cx="186.118" cy="31.093" r="22.478" fill="#ffffff" data-original="#f8af23" class="" opacity="1"></circle><path fill="#ffffff" d="M186.118 8.614c-2.631 0-5.154.456-7.5 1.287 8.726 3.088 14.978 11.408 14.978 21.192s-6.253 18.103-14.978 21.192a22.44 22.44 0 0 0 7.5 1.287c12.415 0 22.479-10.064 22.479-22.478 0-12.416-10.064-22.48-22.479-22.48z" data-original="#f87023" class="" opacity="1"></path><g fill="#3f3679"><path d="M20.748 252.932H1.568a1.5 1.5 0 1 0 0 3h19.179a1.5 1.5 0 0 0 .001-3zM254.432 252.932h-19.179a1.5 1.5 0 1 0 0 3h19.179a1.5 1.5 0 1 0 0-3zM224.389 252.932H31.611a1.5 1.5 0 1 0 0 3h192.778a1.5 1.5 0 1 0 0-3zM255.932 242.742a1.5 1.5 0 0 0-1.5-1.5h-26.525V133.789h1.959a1.5 1.5 0 0 0 1.5-1.5v-69.48c0-.095-.011-.188-.028-.278 2.42-6.292-.434-13.485-6.645-16.331a12.866 12.866 0 0 0-4.352-1.124 1.5 1.5 0 0 0-.369-.051h-14.357a23.837 23.837 0 0 0 4.482-13.933c0-13.222-10.756-23.979-23.978-23.979s-23.979 10.758-23.979 23.98c0 7.888 3.83 14.897 9.727 19.27a19.376 19.376 0 0 0-6.075 13.073l-1.586.696-25.256-9.318c-6.667-2.46-14.09.962-16.55 7.628a12.884 12.884 0 0 0 7.629 16.55l30.135 11.119a12.892 12.892 0 0 0 5.598.745v11.966l-17.924 7.681c-6.531 2.8-9.567 10.391-6.768 16.921a12.88 12.88 0 0 0 16.921 6.769l7.772-3.331v1.429a1.5 1.5 0 0 0 1.5 1.5h1.959v107.453H86.779V133.789h1.959a1.5 1.5 0 0 0 1.5-1.5v-1.429l7.772 3.331a12.878 12.878 0 0 0 16.92-6.769c1.319-3.078 1.328-6.387.3-9.323a12.868 12.868 0 0 0 4.09-4.436c3.433-6.221 1.165-14.075-5.056-17.509l-23.57-13.007-.419-1.359c-.01-.031-.026-.058-.037-.088V64.525c0-10.752-8.748-19.5-19.5-19.5h-1.706c7.376-4.094 12.382-11.961 12.382-20.979C81.414 10.824 70.657.067 57.435.067s-23.977 10.758-23.977 23.98c0 9.017 5.005 16.885 12.381 20.979h-9.812a1.47 1.47 0 0 0-.371.052 12.842 12.842 0 0 0-4.35 1.123c-6.211 2.846-9.066 10.039-6.645 16.331-.017.09-.028.182-.028.278v69.48a1.5 1.5 0 0 0 1.5 1.5h1.959v107.453H1.568a1.5 1.5 0 1 0 0 3h252.865a1.502 1.502 0 0 0 1.499-1.501zM228.311 62.033l-20.515 44.763a9.865 9.865 0 0 1-5.093 4.968l-40.587 17.396-8.413-17.906 37.176-15.932c.342-.146.618-.415.773-.754l18.686-40.771a9.824 9.824 0 0 1 5.545-5.149 9.916 9.916 0 0 1 3.382-.621h.12a9.874 9.874 0 0 1 4.059.901c4.954 2.27 7.138 8.15 4.867 13.105zm-63.171-30.94c0-11.567 9.411-20.979 20.979-20.979s20.978 9.411 20.978 20.979-9.411 20.979-20.978 20.979-20.979-9.412-20.979-20.979zm-38.123 42.284a9.898 9.898 0 0 1-1.803-9.897c1.887-5.114 7.582-7.739 12.698-5.853l4.835 1.784-8.56 17.917-3.12-1.151a9.883 9.883 0 0 1-4.05-2.8zm34.185 13.919-24.189-8.925 8.56-17.917 18.163 6.701c.363.134.766.124 1.122-.034l.904-.397v21.095a9.884 9.884 0 0 1-4.56-.523zm7.56-22.771c0-4.831 2.092-9.328 5.732-12.47a23.822 23.822 0 0 0 11.625 3.016c6.618 0 12.618-2.696 16.961-7.046h7.996a12.82 12.82 0 0 0-3.466 4.521l-18.444 40.245-20.403 8.744v-37.01zm-11.953 66.909a9.882 9.882 0 0 1-12.982-5.192c-2.147-5.011.182-10.834 5.192-12.981l1.925-.825 8.413 17.906zm11.953-1.859 35.123-15.053a12.873 12.873 0 0 0 6.639-6.476l17.842-38.932v61.675h-59.604zm-56.588-3.334a9.881 9.881 0 0 1-12.982 5.192l-2.549-1.092 8.413-17.906 1.925.825c5.01 2.147 7.34 7.97 5.193 12.981zm4.519-14.026a9.88 9.88 0 0 1-2.779 3.154 12.815 12.815 0 0 0-5.752-4.867l-5.113-2.191 5.253-12.019 4.512 2.49c4.773 2.634 6.514 8.66 3.879 13.433zm-11.028-17.379-5.373 12.292-10.053-4.308V86.323zM36.458 24.047c0-11.567 9.411-20.979 20.978-20.979s20.979 9.411 20.979 20.979-9.411 20.979-20.979 20.979-20.978-9.412-20.978-20.979zm34.28 23.978c9.098 0 16.5 7.402 16.5 16.5v37.01l-20.403-8.744-18.444-40.245a12.838 12.838 0 0 0-3.466-4.521zm-38.18.902a9.839 9.839 0 0 1 4.059-.901h.12a9.916 9.916 0 0 1 3.382.621 9.824 9.824 0 0 1 5.545 5.149L64.35 94.567a1.5 1.5 0 0 0 .773.754l37.176 15.932-8.413 17.906-40.588-17.395a9.865 9.865 0 0 1-5.093-4.968L27.689 62.033c-2.271-4.955-.087-10.835 4.869-13.106zm-4.924 20.187 17.842 38.932a12.866 12.866 0 0 0 6.639 6.476l35.123 15.053v1.215H27.634zm26.77 172.128H31.093V133.789h27.875v107.453zm7.565 0V133.789H83.78v107.453zm110.252-107.453h21.811v107.453h-21.811zm29.375 107.453h-4.565V133.789h27.875v107.453zM210.962 16.939a1.498 1.498 0 0 0 2-.708l2.26-4.739.881 1.567c.274.488.779.797 1.358.764a1.5 1.5 0 0 0 1.304-.854l3.505-7.349a1.5 1.5 0 1 0-2.708-1.291l-2.26 4.739-.881-1.567a1.463 1.463 0 0 0-1.358-.764 1.5 1.5 0 0 0-1.304.854l-3.505 7.349a1.5 1.5 0 0 0 .708 1.999zM229.129 34.582a1.5 1.5 0 0 0-.053 1.558l.881 1.566-5.225-.532a1.5 1.5 0 0 0-.304 2.985l8.101.825a1.5 1.5 0 0 0 1.459-2.228l-.88-1.565 5.223.532c.818.067 1.561-.516 1.645-1.34s-.516-1.561-1.34-1.645l-8.1-.826c-.561-.058-1.1.2-1.407.67zM226.78 21.617l-5.224-.533a1.501 1.501 0 0 0-.305 2.985l8.1.826a1.5 1.5 0 0 0 1.46-2.228l-.881-1.567 5.224.533a1.514 1.514 0 0 0 1.645-1.34 1.5 1.5 0 0 0-1.34-1.645l-8.101-.826a1.5 1.5 0 0 0-1.46 2.228z" fill="#1f1f1f" data-original="#3f3679" class="" opacity="1"></path></g></g></svg>