<svg xmlns="http://www.w3.org/2000/svg" version="1.1" xmlns:xlink="http://www.w3.org/1999/xlink" xmlns:svgjs="http://svgjs.com/svgjs" width="512" height="512" x="0" y="0" viewBox="0 0 128 128" style="enable-background:new 0 0 512 512" xml:space="preserve" class=""><g><path d="M41.495 19.868c-1.105 0-2.012-.907-2.012-2.012s.907-1.984 2.012-1.984h18.027c1.105 0 2.012.879 2.012 1.984s-.906 2.012-2.012 2.012zm0 28.174a2.02 2.02 0 0 1-2.012-2.013c0-1.105.907-1.984 2.012-1.984h35.459c1.105 0 2.012.879 2.012 1.984s-.906 2.013-2.012 2.013zm0-9.013c-1.105 0-2.012-.878-2.012-1.984a2.02 2.02 0 0 1 2.012-2.012h45.011c1.105 0 1.984.906 1.984 2.012s-.879 1.984-1.984 1.984zm0-8.985c-1.105 0-2.012-.907-2.012-2.012s.907-1.984 2.012-1.984h45.011c1.105 0 1.984.879 1.984 1.984s-.879 2.012-1.984 2.012zM23.61 107.678c1.105 0 2.012.879 2.012 1.984s-.907 2.013-2.012 2.013H8.616c-2.353 0-4.506-.992-6.094-2.552-.028-.028-.057-.085-.113-.113C.935 107.451 0 105.354 0 103.029V69.895c0-4.194 1.729-7.992 4.479-10.77 2.777-2.749 6.575-4.478 10.771-4.478h97.502c4.195 0 7.993 1.729 10.771 4.478 2.75 2.778 4.479 6.576 4.479 10.77v33.135c0 2.381-.992 4.535-2.551 6.094-.027.057-.086.085-.113.113-1.559 1.503-3.656 2.438-5.979 2.438H104.45c-1.105 0-2.014-.907-2.014-2.013s.908-1.984 2.014-1.984h14.909c1.245 0 2.351-.511 3.202-1.275 0-.028.027-.057.084-.113a4.63 4.63 0 0 0 1.361-3.26V69.895c0-3.089-1.275-5.895-3.316-7.936-2.04-2.041-4.847-3.316-7.937-3.316H15.249c-3.09 0-5.896 1.275-7.937 3.316s-3.315 4.847-3.315 7.936v33.135a4.53 4.53 0 0 0 1.275 3.175l.085.085c.851.85 2.013 1.389 3.26 1.389H23.61z" fill="#b56952" data-original="#000000" class=""></path><path d="M107.65 64.028c1.928 0 3.683.793 4.931 2.069.057.028.084.085.143.113 1.189 1.275 1.926 2.977 1.926 4.817a7.01 7.01 0 0 1-2.068 4.961c-1.275 1.275-3.003 2.041-4.931 2.041s-3.686-.766-4.961-2.041a7.1 7.1 0 0 1-2.041-4.961c0-1.926.793-3.684 2.041-4.931a7.008 7.008 0 0 1 4.96-2.068zm2.125 4.875c-.539-.538-1.303-.878-2.125-.878s-1.588.34-2.127.878c-.539.566-.879 1.304-.879 2.125 0 .822.34 1.588.879 2.126a2.972 2.972 0 0 0 2.127.879 3.02 3.02 0 0 0 2.125-.879 2.973 2.973 0 0 0 .878-2.126c0-.793-.313-1.502-.792-2.04l-.086-.085z" fill="#b56952" data-original="#000000" class=""></path><path fill-rule="evenodd" d="M18.367 69.045c1.105 0 2.013.878 2.013 1.983s-.907 2.013-2.013 2.013-1.984-.907-1.984-2.013.878-1.983 1.984-1.983zm17.601 0c1.105 0 2.013.878 2.013 1.983s-.907 2.013-2.013 2.013c-1.105 0-1.984-.907-1.984-2.013s.879-1.983 1.984-1.983zm-8.787 0c1.106 0 1.984.878 1.984 1.983s-.878 2.013-1.984 2.013c-1.105 0-2.012-.907-2.012-2.013s.907-1.983 2.012-1.983z" clip-rule="evenodd" fill="#b56952" data-original="#000000" class=""></path><path d="M99.231 87.78c-.17-1.077.595-2.098 1.7-2.268 1.076-.142 2.098.624 2.24 1.701l5.016 34.296c.029.255.057.511.057.737 0 1.501-.623 2.833-1.615 3.854a6.275 6.275 0 0 1-3.572 1.814 4.292 4.292 0 0 1-.85.085H25.792c-.283 0-.566-.028-.85-.085h-.085a6.503 6.503 0 0 1-3.487-1.814c-.991-1.021-1.615-2.353-1.615-3.854 0-.227.028-.482.057-.737L24.8 87.213a2.031 2.031 0 0 1 2.267-1.701 2.026 2.026 0 0 1 1.701 2.268l-5.017 34.297v.17c0 .396.198.764.482 1.076.312.34.765.566 1.219.651h.057c.084 0 .17.028.283.028h76.415c.113 0 .199-.028.283-.028a2.4 2.4 0 0 0 1.275-.651c.283-.313.482-.68.482-1.076 0-.057 0-.142-.027-.17z" fill="#b56952" data-original="#000000" class=""></path><path d="M18.849 97.049c1.105 0 1.983.907 1.983 2.013s-.878 1.984-1.983 1.984c-1.644 0-3.146-.681-4.251-1.758-1.077-1.105-1.758-2.607-1.758-4.224v-3.571a5.98 5.98 0 0 1 1.758-4.223h.028a5.864 5.864 0 0 1 4.223-1.758h90.388c1.644 0 3.146.652 4.224 1.758a5.912 5.912 0 0 1 1.758 4.223v3.571a5.91 5.91 0 0 1-1.758 4.224 5.915 5.915 0 0 1-4.224 1.758c-1.105 0-2.012-.879-2.012-1.984s.906-2.013 2.012-2.013a2.12 2.12 0 0 0 1.417-.567v-.028c.34-.34.566-.85.566-1.389v-3.571c0-.539-.227-1.048-.566-1.389v-.028a2.12 2.12 0 0 0-1.417-.566H18.849c-.567 0-1.077.227-1.417.566v.028c-.369.341-.595.85-.595 1.389v3.571c0 .539.227 1.049.595 1.389v.028c.339.34.85.567 1.417.567zM28.797 48.893c0 1.105-.907 2.012-2.013 2.012s-1.984-.907-1.984-2.012V5.357a5.31 5.31 0 0 1 1.559-3.77l.142-.142C27.465.566 28.74 0 30.158 0h54.448a5.34 5.34 0 0 1 2.014.396c.65.255 1.219.623 1.729 1.105l13.123 12.358c.566.538 1.02 1.134 1.303 1.813.283.681.426 1.39.426 2.154v31.065c0 1.105-.879 2.012-1.984 2.012s-2.011-.907-2.011-2.012V20.69l-9.299.028v.028h-.027v-.028c-2.692 0-4.733-.936-6.095-2.409-1.389-1.503-2.041-3.458-2.041-5.555h-.027V3.996H30.158c-.34 0-.68.142-.907.341l-.057.057a1.349 1.349 0 0 0-.396.964v43.535zm69.895-32.171L85.711 4.506v8.249c0 1.105.34 2.125.992 2.833.652.709 1.701 1.162 3.175 1.162h.027z" fill="#b56952" data-original="#000000" class=""></path></g></svg>