<svg id="Capa_1" enable-background="new 0 0 508.866 508.866" height="512" viewBox="0 0 508.866 508.866" width="512" xmlns="http://www.w3.org/2000/svg"><g><path d="m53.09 400.776c0 24.702 30.085 35.814 46.766 19.157 5.122-5.115 7.943-11.918 7.943-19.157v-76.315h18.504l56.466 19.162c3.923 1.33 8.181-.771 9.512-4.692 1.331-3.923-.77-8.182-4.692-9.513l-52.547-17.832v-97.398l99.259-33.686v164.77l-13.568-4.605c-3.919-1.327-8.18.77-9.512 4.692-1.331 3.922.77 8.181 4.692 9.513l16.215 5.503c8.503 2.877 17.173-3.495 17.173-12.311v-45.891h7.288c11.58 0 21.001-9.421 21.001-21.001v-36.532c0-11.58-9.421-21.002-21.001-21.002h-7.289v-45.928c0-8.818-8.658-15.176-17.176-12.31l-105.821 35.912h-64.729c-33.952 0-61.574 27.622-61.574 61.574 0 31.073 23.14 56.828 53.09 60.976zm203.498-162.139c3.309 0 6.001 2.692 6.001 6.002v36.532c0 3.309-2.692 6.001-6.001 6.001h-7.288v-48.535zm-163.789 162.139c0 6.112-4.649 12.084-12.654 12.071-6.647-.009-12.055-5.424-12.055-12.071v-76.316h24.708zm-77.799-137.89c0-25.681 20.893-46.574 46.574-46.574h58.467v93.148c-.475 0-58.336.006-58.81-.01-.319-.009-.235-.008-.531-.012-25.277-.469-45.7-21.164-45.7-46.552z"/><path d="m423.072 168.659c-37.869 0-71.147 24.821-82.078 60.767l-24.936 13.069c-9.654 5.059-9.613 18.88 0 23.915l24.936 13.07c10.931 35.945 44.208 60.767 82.078 60.767 47.307 0 85.794-38.487 85.794-85.794s-38.487-85.794-85.794-85.794zm0 156.588c-32.183 0-60.345-21.717-68.485-52.813-.534-2.042-1.904-3.764-3.773-4.743l-25.258-13.238 25.258-13.238c1.869-.979 3.239-2.701 3.773-4.743 8.14-31.096 36.302-52.813 68.485-52.813 39.036 0 70.794 31.758 70.794 70.794s-31.758 70.794-70.794 70.794z"/><path d="m406.487 148.459c16.205-16.204 25.129-37.749 25.129-60.665 0-2.131-.08-4.286-.238-6.406-.308-4.13-3.904-7.213-8.037-6.922-4.131.308-7.23 3.906-6.922 8.037.131 1.75.197 3.53.197 5.291 0 18.909-7.364 36.687-20.736 50.059-13.368 13.369-31.145 20.731-50.056 20.731-12.575 0-24.924-3.337-35.714-9.65-1.821-1.064-4.008-1.315-6.023-.686l-27.22 8.5 8.5-27.221c.629-2.015.38-4.201-.686-6.022-6.313-10.789-9.649-23.138-9.649-35.711 0-18.913 7.362-36.691 20.73-50.059 13.372-13.371 31.149-20.734 50.059-20.734 18.911 0 36.689 7.363 50.059 20.733 4.43 4.431 8.245 9.402 11.338 14.775 2.066 3.59 6.65 4.825 10.242 2.759 3.59-2.066 4.825-6.651 2.758-10.241-3.75-6.516-8.37-12.537-13.731-17.899-16.203-16.203-37.748-25.127-60.666-25.127-22.916 0-44.461 8.924-60.666 25.127-16.202 16.201-25.124 37.746-25.124 60.666 0 14.102 3.468 27.976 10.056 40.339l-8.393 26.878c-3.231 10.363 6.45 20.158 16.911 16.908l26.875-8.392c12.364 6.589 26.239 10.057 40.342 10.057 22.92 0 44.464-8.922 60.665-25.125z"/><path d="m317.569 126.491 66.468-66.469c2.929-2.93 2.929-7.678 0-10.607-2.929-2.928-7.678-2.928-10.606 0l-66.468 66.469c-2.929 2.93-2.929 7.678 0 10.607 2.93 2.928 7.677 2.928 10.606 0z"/><path d="m341.044 60.375c0-11.579-9.42-21-21-21s-21 9.421-21 21 9.42 21 21 21 21-9.42 21-21zm-27 0c0-3.309 2.691-6 6-6s6 2.691 6 6-2.691 6-6 6-6-2.691-6-6z"/><path d="m371.663 135.823c11.58 0 21-9.421 21-21s-9.42-21-21-21-21 9.421-21 21 9.42 21 21 21zm0-27c3.309 0 6 2.691 6 6s-2.691 6-6 6-6-2.691-6-6 2.691-6 6-6z"/><path d="m308.314 345.377-26.874-8.392c-10.38-3.246-20.152 6.529-16.91 16.91l8.391 26.874c-30.421 57.007 11.034 126.095 75.734 126.095 47.146 0 85.793-38.04 85.793-85.753.002-64.398-68.887-106.285-126.134-75.734zm90.401 25.675c0 .001 0 .001 0 0 13.371 13.371 20.735 31.149 20.735 50.06 0 39.38-31.902 70.762-70.794 70.76-54.558-.006-88.712-59.346-61.14-106.473 1.065-1.821 1.314-4.008.686-6.022l-8.499-27.22 27.219 8.5c2.016.63 4.202.38 6.023-.686 27.744-16.233 63.014-11.674 85.77 11.081z"/><path d="m434.474 248.041c-1.216-.449-2.42-.902-3.605-1.355v-23.447c6.158 1.795 10.448 5.213 10.622 5.354 3.17 2.641 7.882 2.224 10.54-.938 2.665-3.171 2.255-7.902-.916-10.567-.487-.41-8.594-7.091-20.246-9.265v-7.388c0-4.143-3.358-7.5-7.5-7.5s-7.5 3.357-7.5 7.5v7.552c-.95.205-1.905.438-2.872.729-10.066 3.032-17.183 10.929-18.572 20.607-1.295 9.022 2.613 17.699 10.199 22.646.332.217.679.406 1.041.567.276.123 4.338 1.931 10.205 4.338v28.551c-5.113-1.518-9.709-4.282-13.086-8.009-2.781-3.069-7.524-3.303-10.594-.521-3.069 2.781-3.302 7.524-.521 10.594 6.147 6.783 14.806 11.482 24.202 13.355v7.627c0 4.143 3.358 7.5 7.5 7.5s7.5-3.357 7.5-7.5v-7.225c12.744-2.192 23.109-11.318 25.182-22.927 1.805-10.124-2.914-23.394-21.579-30.278zm-22.081-8.932c-2.397-1.776-3.559-4.601-3.121-7.654.496-3.456 2.925-6.308 6.597-7.851v17.007c-1.592-.679-2.803-1.206-3.476-1.502zm28.891 36.572c-.741 4.152-4.63 8.404-10.416 10.191v-23.133c7.548 3.177 11.327 7.838 10.416 12.942z"/><path d="m303.507 423.125 4.838 36.619c.718 5.424 5.384 9.514 10.855 9.514h58.911c5.471 0 10.138-4.09 10.856-9.516l4.838-36.619c.413-3.127-.543-6.28-2.622-8.652-2.079-2.371-5.08-3.731-8.234-3.731h-6.188v-9.56c0-15.438-12.56-27.997-27.997-27.997s-27.997 12.56-27.997 27.997v9.56h-6.405c-6.617-.001-11.722 5.831-10.855 12.385zm32.26-21.946c0-7.167 5.831-12.997 12.997-12.997s12.997 5.83 12.997 12.997v9.56h-25.994zm42.563 24.56-3.768 28.519h-51.812l-3.768-28.519z"/></g></svg>