<svg id="Capa_1" enable-background="new 0 0 511.994 511.994" height="512" viewBox="0 0 511.994 511.994" width="512" xmlns="http://www.w3.org/2000/svg"><path d="m194.783 406.647-.1-.001c-.025 0-.05 0-.075 0-4.107 0-7.408 3.311-7.448 7.427-.041 4.143 3.334 7.533 7.476 7.574h.075c4.107 0 7.458-3.31 7.498-7.427.041-4.141-3.284-7.532-7.426-7.573z"/><path d="m507.09 407.587-110.77-110.77c-3.168-3.169-7.38-4.914-11.86-4.914-2.589 0-5.081.6-7.34 1.703l-40.459-40.458c15.329-22.19 24.323-49.077 24.323-78.028 0-33.562-12.218-65.888-34.403-91.024-21.985-24.91-52.146-41.028-84.923-45.385-4.111-.558-7.877 2.341-8.423 6.446-.546 4.106 2.34 7.877 6.446 8.423 60.603 8.056 106.303 60.307 106.303 121.54 0 67.614-55.008 122.623-122.622 122.623s-122.622-55.009-122.622-122.623c0-61.531 45.949-113.817 106.882-121.621 4.109-.526 7.013-4.283 6.487-8.393-.527-4.108-4.281-7.014-8.392-6.486-68.399 8.761-119.977 67.442-119.977 136.5 0 14.326 2.203 28.146 6.283 41.144l-87.136 63.868c-2.574 1.886-4.259 4.661-4.745 7.814s.285 6.307 2.171 8.88l13.135 17.92c2.337 3.188 5.969 4.879 9.649 4.879 2.45 0 4.921-.75 7.045-2.306l6.177-4.527v153.144c0 4.143 3.358 7.5 7.5 7.5h273.736c4.143 0 7.5-3.357 7.5-7.5v-74.469c0-4.143-3.357-7.5-7.5-7.5s-7.5 3.357-7.5 7.5v31.519h-16.94v-71.267c0-6.773-5.511-12.284-12.284-12.284h-28.704c-6.773 0-12.284 5.511-12.284 12.284v71.267h-16.395v-35.014c0-23.579-19.183-42.763-42.763-42.763s-42.763 19.184-42.763 42.763v35.014h-16.393v-71.267c0-6.773-5.51-12.284-12.284-12.284h-28.702c-6.773 0-12.284 5.511-12.284 12.284v71.267h-16.94v-119.524c0-.53-.057-1.047-.161-1.547l60.232-44.149c25.136 33.364 65.076 54.977 109.972 54.977 28.948 0 55.832-8.992 78.02-24.318l10.69 10.69c-.005.116-.018.23-.018.347v58.005c0 4.143 3.357 7.5 7.5 7.5s7.5-3.357 7.5-7.5v-43.37l14.788 14.788c-1.101 2.258-1.7 4.747-1.7 7.333 0 4.48 1.745 8.692 4.913 11.86l110.772 110.772c3.271 3.27 7.564 4.904 11.86 4.904 4.295 0 8.591-1.636 11.861-4.904l27.541-27.542c6.539-6.54 6.539-17.18.001-23.721zm-250.247-53.153h23.271v68.551h-23.271zm55.212 83.551v20.45h-86.606v-20.45zm-157.132-50.013c0-15.309 12.454-27.763 27.763-27.763s27.763 12.454 27.763 27.763v70.464h-55.525v-70.464zm-69.664-33.538h23.271v68.551h-23.271zm54.664 83.551v20.45h-86.604v-20.45zm-114.182-134.571-9.522-12.99 81.312-59.599c2.217 4.988 4.723 9.82 7.494 14.476zm301.665-38.306 38.451 38.45-14.062 14.063-38.451-38.451c5.016-4.344 9.717-9.045 14.062-14.062zm169.077 155.594-27.54 27.541c-.691.691-1.818.691-2.508 0l-110.772-110.771c-.43-.43-.52-.919-.52-1.253 0-.335.09-.824.521-1.254l27.541-27.542c.43-.43.919-.52 1.254-.52.334 0 .823.09 1.253.521l110.771 110.77c.691.691.691 1.818 0 2.508z"/><path d="m160.111 250.938c-2.407 3.371-1.626 8.055 1.745 10.462 18.024 12.871 39.292 19.674 61.506 19.674 58.423 0 105.953-47.531 105.953-105.954s-47.531-105.954-105.953-105.954-105.954 47.531-105.954 105.954c0 21.647 6.493 42.472 18.776 60.222 2.358 3.406 7.028 4.258 10.436 1.899 3.406-2.356 4.256-7.029 1.899-10.435-10.54-15.23-16.111-33.104-16.111-51.687 0-50.152 40.801-90.954 90.953-90.954 50.151 0 90.953 40.802 90.953 90.954s-40.802 90.954-90.953 90.954c-19.069 0-37.324-5.837-52.789-16.881-3.369-2.406-8.054-1.625-10.461 1.746z"/><path d="m198.851 216.544h49.021c4.142 0 7.5-3.357 7.5-7.5v-31.493l2.223 1.848c3.187 2.649 7.914 2.211 10.563-.974 2.647-3.186 2.211-7.914-.975-10.563l-39.028-32.434c-2.778-2.311-6.809-2.31-9.587-.001l-39.028 32.435c-3.186 2.647-3.622 7.377-.975 10.563 1.483 1.784 3.62 2.706 5.772 2.706 1.689 0 3.389-.567 4.79-1.731l2.224-1.848v31.493c0 4.141 3.358 7.499 7.5 7.499zm24.511-65.596 17.035 14.157c-.01.162-.025.324-.025.488v35.95h-34.021v-35.95c0-.165-.014-.326-.025-.488z"/></svg>