<?xml version="1.0" encoding="UTF-8" standalone="no"?>
<!-- Created with Inkscape (http://www.inkscape.org/) -->

<svg
   version="1.1"
   id="svg4365"
   xml:space="preserve"
   width="682.66669"
   height="682.66669"
   viewBox="0 0 682.66669 682.66669"
   xmlns="http://www.w3.org/2000/svg"
   xmlns:svg="http://www.w3.org/2000/svg"><defs
     id="defs4369"><clipPath
       clipPathUnits="userSpaceOnUse"
       id="clipPath4379"><path
         d="M 0,512 H 512 V 0 H 0 Z"
         id="path4377" /></clipPath></defs><g
     id="g4371"
     transform="matrix(1.3333333,0,0,-1.3333333,0,682.66667)"><g
       id="g4373"><g
         id="g4375"
         clip-path="url(#clipPath4379)"><g
           id="g4381"
           transform="translate(256,29.5068)"><path
             d="M 0,0 C -195.486,136.375 -172.612,335.563 -172.612,335.563 -34.848,377.706 0,423.974 0,423.974 c 0,0 34.848,-46.268 172.612,-88.411 0,0 22.874,-199.188 -172.612,-335.563 z"
             style="fill:none;stroke:#000000;stroke-width:30;stroke-linecap:round;stroke-linejoin:round;stroke-miterlimit:10;stroke-dasharray:none;stroke-opacity:1"
             id="path4383" /></g><g
           id="g4385"
           transform="translate(311.2017,280.5635)"><path
             d="m 0,0 h -110.403 c -6.816,0 -12.341,-5.525 -12.341,-12.341 v -85.903 c 0,-6.816 5.525,-12.341 12.341,-12.341 H 0 c 6.816,0 12.341,5.525 12.341,12.341 v 85.903 C 12.341,-5.525 6.816,0 0,0 Z"
             style="fill:none;stroke:#000000;stroke-width:30;stroke-linecap:round;stroke-linejoin:round;stroke-miterlimit:10;stroke-dasharray:none;stroke-opacity:1"
             id="path4387" /></g><g
           id="g4389"
           transform="translate(305.2168,280.5635)"><path
             d="m 0,0 v 23.228 c 0,27.181 -22.036,49.216 -49.217,49.216 -27.181,0 -49.217,-22.035 -49.217,-49.216 V 0"
             style="fill:none;stroke:#000000;stroke-width:30;stroke-linecap:round;stroke-linejoin:round;stroke-miterlimit:10;stroke-dasharray:none;stroke-opacity:1"
             id="path4391" /></g><g
           id="g4393"
           transform="translate(256,230.5635)"><path
             d="M 0,0 V -10.585"
             style="fill:none;stroke:#000000;stroke-width:30;stroke-linecap:round;stroke-linejoin:round;stroke-miterlimit:10;stroke-dasharray:none;stroke-opacity:1"
             id="path4395" /></g><g
           id="g4397"
           transform="translate(75,452.4932)"><path
             d="m 0,0 c 0,-16.568 -13.432,-30 -30,-30 -16.568,0 -30,13.432 -30,30 0,16.568 13.432,30 30,30 C -13.432,30 0,16.568 0,0 Z"
             style="fill:none;stroke:#000000;stroke-width:30;stroke-linecap:round;stroke-linejoin:round;stroke-miterlimit:10;stroke-dasharray:none;stroke-opacity:1"
             id="path4399" /></g><g
           id="g4401"
           transform="translate(75,94.04)"><path
             d="m 0,0 c 0,-16.568 -13.432,-30 -30,-30 -16.568,0 -30,13.432 -30,30 0,16.568 13.432,30 30,30 C -13.432,30 0,16.568 0,0 Z"
             style="fill:none;stroke:#000000;stroke-width:30;stroke-linecap:round;stroke-linejoin:round;stroke-miterlimit:10;stroke-dasharray:none;stroke-opacity:1"
             id="path4403" /></g><g
           id="g4405"
           transform="translate(75,94.04)"><path
             d="M 0,0 H 107.134"
             style="fill:none;stroke:#000000;stroke-width:30;stroke-linecap:round;stroke-linejoin:round;stroke-miterlimit:10;stroke-dasharray:none;stroke-opacity:1"
             id="path4407" /></g><g
           id="g4409"
           transform="translate(437,94.04)"><path
             d="M 0,0 C 0,-16.568 13.432,-30 30,-30 46.568,-30 60,-16.568 60,0 60,16.568 46.568,30 30,30 13.432,30 0,16.568 0,0 Z"
             style="fill:none;stroke:#000000;stroke-width:30;stroke-linecap:round;stroke-linejoin:round;stroke-miterlimit:10;stroke-dasharray:none;stroke-opacity:1"
             id="path4411" /></g><g
           id="g4413"
           transform="translate(437,94.04)"><path
             d="M 0,0 H -107.134"
             style="fill:none;stroke:#000000;stroke-width:30;stroke-linecap:round;stroke-linejoin:round;stroke-miterlimit:10;stroke-dasharray:none;stroke-opacity:1"
             id="path4415" /></g><g
           id="g4417"
           transform="translate(75,452.4932)"><path
             d="M 0,0 H 78.933 V -62.174"
             style="fill:none;stroke:#000000;stroke-width:30;stroke-linecap:round;stroke-linejoin:round;stroke-miterlimit:10;stroke-dasharray:none;stroke-opacity:1"
             id="path4419" /></g><g
           id="g4421"
           transform="translate(437,452.4932)"><path
             d="M 0,0 C 0,-16.568 13.432,-30 30,-30 46.568,-30 60,-16.568 60,0 60,16.568 46.568,30 30,30 13.432,30 0,16.568 0,0 Z"
             style="fill:none;stroke:#000000;stroke-width:30;stroke-linecap:round;stroke-linejoin:round;stroke-miterlimit:10;stroke-dasharray:none;stroke-opacity:1"
             id="path4423" /></g><g
           id="g4425"
           transform="translate(437,452.4932)"><path
             d="M 0,0 H -78.933 V -62.174"
             style="fill:none;stroke:#000000;stroke-width:30;stroke-linecap:round;stroke-linejoin:round;stroke-miterlimit:10;stroke-dasharray:none;stroke-opacity:1"
             id="path4427" /></g><g
           id="g4429"
           transform="translate(421.8604,274.1572)"><path
             d="M 0,0 H 75.14"
             style="fill:none;stroke:#000000;stroke-width:30;stroke-linecap:round;stroke-linejoin:round;stroke-miterlimit:10;stroke-dasharray:none;stroke-opacity:1"
             id="path4431" /></g><g
           id="g4433"
           transform="translate(90.1396,274.1572)"><path
             d="M 0,0 H -75.14"
             style="fill:none;stroke:#000000;stroke-width:30;stroke-linecap:round;stroke-linejoin:round;stroke-miterlimit:10;stroke-dasharray:none;stroke-opacity:1"
             id="path4435" /></g><g
           id="g4437"
           transform="translate(112.2207,203.1113)"><path
             d="M 0,0 H -63.111"
             style="fill:none;stroke:#000000;stroke-width:30;stroke-linecap:round;stroke-linejoin:round;stroke-miterlimit:10;stroke-dasharray:none;stroke-opacity:1"
             id="path4439" /></g><g
           id="g4441"
           transform="translate(399.7793,203.1113)"><path
             d="M 0,0 H 63.111"
             style="fill:none;stroke:#000000;stroke-width:30;stroke-linecap:round;stroke-linejoin:round;stroke-miterlimit:10;stroke-dasharray:none;stroke-opacity:1"
             id="path4443" /></g></g></g></g></svg>
