<?xml version="1.0" encoding="UTF-8" standalone="no"?>
<!-- Created with Inkscape (http://www.inkscape.org/) -->

<svg
   version="1.1"
   id="svg5217"
   xml:space="preserve"
   width="682.66669"
   height="682.66669"
   viewBox="0 0 682.66669 682.66669"
   xmlns="http://www.w3.org/2000/svg"
   xmlns:svg="http://www.w3.org/2000/svg"><defs
     id="defs5221"><clipPath
       clipPathUnits="userSpaceOnUse"
       id="clipPath5243"><path
         d="M 0,512 H 512 V 0 H 0 Z"
         id="path5241" /></clipPath></defs><g
     id="g5223"
     transform="matrix(1.3333333,0,0,-1.3333333,0,682.66667)"><g
       id="g5225"
       transform="translate(355.6621,89.9248)"><path
         d="M 0,0 -53.724,31.828"
         style="fill:none;stroke:#000000;stroke-width:15;stroke-linecap:round;stroke-linejoin:round;stroke-miterlimit:10;stroke-dasharray:none;stroke-opacity:1"
         id="path5227" /></g><g
       id="g5229"
       transform="translate(322.2324,65.8037)"><path
         d="M 0,0 -39.584,23.451"
         style="fill:none;stroke:#000000;stroke-width:15;stroke-linecap:round;stroke-linejoin:round;stroke-miterlimit:10;stroke-dasharray:none;stroke-opacity:1"
         id="path5231" /></g><g
       id="g5233"
       transform="translate(281.7187,45.8799)"><path
         d="M 0,0 -15.512,9.189"
         style="fill:none;stroke:#000000;stroke-width:15;stroke-linecap:round;stroke-linejoin:round;stroke-miterlimit:10;stroke-dasharray:none;stroke-opacity:1"
         id="path5235" /></g><g
       id="g5237"><g
         id="g5239"
         clip-path="url(#clipPath5243)"><g
           id="g5245"
           transform="translate(255.1709,221.8096)"><path
             d="m 0,0 -2.729,1.614 c -15.694,9.007 -23.034,10.672 -37.192,5.198 L -55.354,0.847 c -9.391,-3.631 -19.928,-2.754 -28.59,2.378 l -9.543,5.626"
             style="fill:none;stroke:#000000;stroke-width:15;stroke-linecap:round;stroke-linejoin:round;stroke-miterlimit:10;stroke-dasharray:none;stroke-opacity:1"
             id="path5247" /></g><g
           id="g5249"
           transform="translate(102.563,131.8896)"><path
             d="M 0,0 15.991,-9.438"
             style="fill:none;stroke:#000000;stroke-width:15;stroke-linecap:round;stroke-linejoin:round;stroke-miterlimit:10;stroke-dasharray:none;stroke-opacity:1"
             id="path5251" /></g><g
           id="g5253"
           transform="translate(236.8535,28.5332)"><path
             d="m 0,0 25.603,-15.168 c 8.978,-5.319 20.569,-2.353 25.888,6.626 5.32,8.979 2.353,20.569 -6.626,25.889 L 66.116,4.757 c 8.979,-5.319 20.57,-2.354 25.889,6.626 5.319,8.978 2.352,20.569 -6.626,25.888 l 14.167,-8.393 c 8.978,-5.319 20.569,-2.354 25.889,6.625 v 10e-4 c 5.319,8.978 2.352,20.568 -6.626,25.888 L 136.146,51.12 c 8.979,-5.318 20.568,-2.352 25.887,6.625 5.319,8.978 2.353,20.568 -6.626,25.887"
             style="fill:none;stroke:#000000;stroke-width:15;stroke-linecap:round;stroke-linejoin:round;stroke-miterlimit:10;stroke-dasharray:none;stroke-opacity:1"
             id="path5255" /></g><g
           id="g5257"
           transform="translate(352.5791,226.3271)"><path
             d="m 0,0 -2.226,-1.293 c -8.662,-5.132 -19.199,-6.008 -28.589,-2.378 l -17.404,6.837 c -5.443,2.139 -11.42,2.517 -17.09,1.082 L -91.973,-2.5 c -12.413,-3.142 -21.108,-14.312 -21.108,-27.115 V -65.21 c 0,-5.033 4.078,-9.126 9.111,-9.13 15.176,-0.01 27.483,12.29 27.483,27.465 v 1.507 l 114.134,-67.59 c 2.115,2.253 4.539,4.2 7.206,5.78 l 14.762,8.625"
             style="fill:none;stroke:#000000;stroke-width:15;stroke-linecap:round;stroke-linejoin:round;stroke-miterlimit:10;stroke-dasharray:none;stroke-opacity:1"
             id="path5259" /></g><g
           id="g5261"
           transform="translate(136.6274,83.2734)"><path
             d="m 0,0 c -6.084,-8.475 -17.887,-10.413 -26.362,-4.328 -8.475,6.084 -10.413,17.887 -4.328,26.361 l 10.7,14.905 c 6.084,8.475 17.887,10.414 26.362,4.33 8.475,-6.085 10.413,-17.888 4.329,-26.363"
             style="fill:none;stroke:#000000;stroke-width:15;stroke-linecap:round;stroke-linejoin:round;stroke-miterlimit:10;stroke-dasharray:none;stroke-opacity:1"
             id="path5263" /></g><g
           id="g5265"
           transform="translate(189.8276,92.5947)"><path
             d="m 0,0 -22.51,-31.354 c -6.084,-8.475 -17.886,-10.413 -26.362,-4.329 -8.475,6.084 -10.413,17.887 -4.328,26.362 l 22.51,31.354 c 6.084,8.476 17.886,10.413 26.361,4.329 C 4.146,20.278 6.084,8.476 0,0 Z"
             style="fill:none;stroke:#000000;stroke-width:15;stroke-linecap:round;stroke-linejoin:round;stroke-miterlimit:10;stroke-dasharray:none;stroke-opacity:1"
             id="path5267" /></g><g
           id="g5269"
           transform="translate(189.8276,92.5947)"><path
             d="m 0,0 c 6.084,8.476 17.887,10.413 26.362,4.329 8.475,-6.084 10.413,-17.887 4.328,-26.362 L 8.181,-53.387 c -6.084,-8.475 -17.887,-10.413 -26.362,-4.329 -8.475,6.084 -10.413,17.887 -4.329,26.362"
             style="fill:none;stroke:#000000;stroke-width:15;stroke-linecap:round;stroke-linejoin:round;stroke-miterlimit:10;stroke-dasharray:none;stroke-opacity:1"
             id="path5271" /></g><g
           id="g5273"
           transform="translate(210.5161,56.6299)"><path
             d="m 0,0 c 6.084,8.475 17.887,10.413 26.362,4.329 8.475,-6.085 10.413,-17.887 4.328,-26.362 L 23.206,-32.46 c -6.085,-8.475 -17.888,-10.412 -26.362,-4.328 -8.475,6.084 -10.413,17.887 -4.329,26.361"
             style="fill:none;stroke:#000000;stroke-width:15;stroke-linecap:round;stroke-linejoin:round;stroke-miterlimit:10;stroke-dasharray:none;stroke-opacity:1"
             id="path5275" /></g><g
           id="g5277"
           transform="translate(218.9189,464.6221)"><path
             d="m 0,0 v 19.384 c 0,9.538 7.729,17.27 17.267,17.27 h 39.629 c 9.538,0 17.266,-7.732 17.266,-17.27 V 0"
             style="fill:none;stroke:#000000;stroke-width:15;stroke-linecap:round;stroke-linejoin:round;stroke-miterlimit:10;stroke-dasharray:none;stroke-opacity:1"
             id="path5279" /></g><g
           id="g5281"
           transform="translate(200.2339,413.1963)"><path
             d="M 0,0 V -31.5"
             style="fill:none;stroke:#000000;stroke-width:15;stroke-linecap:round;stroke-linejoin:round;stroke-miterlimit:10;stroke-dasharray:none;stroke-opacity:1"
             id="path5283" /></g><g
           id="g5285"
           transform="translate(311.7666,413.1963)"><path
             d="M 0,0 V -31.5"
             style="fill:none;stroke:#000000;stroke-width:15;stroke-linecap:round;stroke-linejoin:round;stroke-miterlimit:10;stroke-dasharray:none;stroke-opacity:1"
             id="path5287" /></g><g
           id="g5289"
           transform="translate(479.541,147.292)"><path
             d="m 0,0 14.179,8.452 c 6.685,3.985 10.78,11.194 10.78,18.976 V 177.6 c 0,6.6 -7.191,10.685 -12.861,7.306 l -134.53,-80.189 c -7.562,-4.508 -10.051,-14.287 -5.563,-21.863 l 61.516,-103.835 c 4.504,-7.605 14.328,-10.105 21.92,-5.58 l 14.201,8.465"
             style="fill:none;stroke:#000000;stroke-width:15;stroke-linecap:round;stroke-linejoin:round;stroke-miterlimit:10;stroke-dasharray:none;stroke-opacity:1"
             id="path5291" /></g><g
           id="g5293"
           transform="translate(20.3608,332.1982)"><path
             d="m 0,0 134.529,-80.189 c 7.564,-4.508 10.053,-14.288 5.564,-21.863 L 78.578,-205.888 c -4.505,-7.604 -14.329,-10.104 -21.921,-5.579 l -58.738,35.013 c -6.685,3.984 -10.78,11.193 -10.78,18.975 V -7.307 C -12.861,-0.706 -5.669,3.379 0,0 Z"
             style="fill:none;stroke:#000000;stroke-width:15;stroke-linecap:round;stroke-linejoin:round;stroke-miterlimit:10;stroke-dasharray:none;stroke-opacity:1"
             id="path5295" /></g><g
           id="g5297"
           transform="translate(149.2944,387.5332)"><path
             d="m 0,0 v 56.355 c 0,11.452 9.283,20.734 20.733,20.734 h 171.945 c 11.45,0 20.734,-9.282 20.734,-20.734 V -45.946 c 0,-11.451 -9.284,-20.734 -20.734,-20.734 H 20.733 C 9.283,-66.68 0,-57.397 0,-45.946 v 10.883"
             style="fill:none;stroke:#000000;stroke-width:15;stroke-linecap:round;stroke-linejoin:round;stroke-miterlimit:10;stroke-dasharray:none;stroke-opacity:1"
             id="path5299" /></g><g
           id="g5301"
           transform="translate(149.2944,435.0156)"><path
             d="m 0,0 c 0,-20.749 16.82,-37.569 37.569,-37.569 h 138.272 c 20.749,0 37.571,16.82 37.571,37.569"
             style="fill:none;stroke:#000000;stroke-width:15;stroke-linecap:round;stroke-linejoin:round;stroke-miterlimit:10;stroke-dasharray:none;stroke-opacity:1"
             id="path5303" /></g></g></g></g></svg>
