<?xml version="1.0" encoding="UTF-8" standalone="no"?>
<!-- Created with Inkscape (http://www.inkscape.org/) -->

<svg
   version="1.1"
   id="svg315"
   xml:space="preserve"
   width="682.66669"
   height="682.66669"
   viewBox="0 0 682.66669 682.66669"
   xmlns="http://www.w3.org/2000/svg"
   xmlns:svg="http://www.w3.org/2000/svg"><defs
     id="defs319"><clipPath
       clipPathUnits="userSpaceOnUse"
       id="clipPath329"><path
         d="M 0,512 H 512 V 0 H 0 Z"
         id="path327" /></clipPath></defs><g
     id="g321"
     transform="matrix(1.3333333,0,0,-1.3333333,0,682.66667)"><g
       id="g323"><g
         id="g325"
         clip-path="url(#clipPath329)"><g
           id="g331"
           transform="translate(201.3604,314.4302)"><path
             d="m 0,0 c -1.55,1 -3.391,1.57 -5.36,1.57 -5.52,0 -10,-4.48 -10,-10 0,-2.62 1.009,-5.01 2.66,-6.79 1.83,-1.98 4.439,-3.21 7.34,-3.21 5.519,0 10,4.48 10,10 C 4.64,-4.88 2.79,-1.77 0,0"
             style="fill:#000000;fill-opacity:1;fill-rule:nonzero;stroke:none"
             id="path333" /></g><g
           id="g335"
           transform="translate(256,502)"><path
             d="M 0,0 V -66"
             style="fill:none;stroke:#000000;stroke-width:20;stroke-linecap:round;stroke-linejoin:round;stroke-miterlimit:4;stroke-dasharray:none;stroke-opacity:1"
             id="path337" /></g><g
           id="g339"
           transform="translate(256,76)"><path
             d="M 0,0 V -66"
             style="fill:none;stroke:#000000;stroke-width:20;stroke-linecap:round;stroke-linejoin:round;stroke-miterlimit:4;stroke-dasharray:none;stroke-opacity:1"
             id="path341" /></g><g
           id="g343"
           transform="translate(66.29,425.71)"><path
             d="M 0,0 42.43,-42.43"
             style="fill:none;stroke:#000000;stroke-width:20;stroke-linecap:round;stroke-linejoin:round;stroke-miterlimit:4;stroke-dasharray:none;stroke-opacity:1"
             id="path345" /></g><g
           id="g347"
           transform="translate(403.2803,118.7202)"><path
             d="M 0,0 42.43,-42.43"
             style="fill:none;stroke:#000000;stroke-width:20;stroke-linecap:round;stroke-linejoin:round;stroke-miterlimit:4;stroke-dasharray:none;stroke-opacity:1"
             id="path349" /></g><g
           id="g351"
           transform="translate(445.71,425.71)"><path
             d="M 0,0 -42.43,-42.43"
             style="fill:none;stroke:#000000;stroke-width:20;stroke-linecap:round;stroke-linejoin:round;stroke-miterlimit:4;stroke-dasharray:none;stroke-opacity:1"
             id="path353" /></g><g
           id="g355"
           transform="translate(108.7197,118.7202)"><path
             d="M 0,0 -42.43,-42.43"
             style="fill:none;stroke:#000000;stroke-width:20;stroke-linecap:round;stroke-linejoin:round;stroke-miterlimit:4;stroke-dasharray:none;stroke-opacity:1"
             id="path357" /></g><g
           id="g359"
           transform="translate(476,256)"><path
             d="m 0,0 c 0,0 -87.45,-130 -220,-130 -132.55,0 -220,130 -220,130 0,0 87.45,130 220,130 C -87.45,130 0,0 0,0 Z"
             style="fill:none;stroke:#000000;stroke-width:20;stroke-linecap:round;stroke-linejoin:round;stroke-miterlimit:4;stroke-dasharray:none;stroke-opacity:1"
             id="path361" /></g><g
           id="g363"
           transform="translate(227.4102,330.7402)"><path
             d="M 0,0 C 0.359,0.14 0.72,0.27 1.08,0.4 1.479,0.55 1.88,0.69 2.28,0.83 2.64,0.96 3,1.08 3.37,1.2 3.84,1.36 4.33,1.52 4.81,1.67 5.43,1.86 6.05,2.05 6.68,2.22 7.29,2.4 7.91,2.57 8.54,2.73 9.2,2.9 9.859,3.06 10.52,3.21 c 0.62,0.14 1.23,0.28 1.85,0.4 0.5,0.11 1,0.21 1.51,0.3 0.44,0.08 0.88,0.16 1.32,0.23 0.239,0.05 0.489,0.09 0.739,0.12 0.451,0.08 0.901,0.14 1.351,0.2 0.12,0.02 0.23,0.04 0.35,0.05 0.38,0.06 0.77,0.11 1.16,0.16 0.42,0.05 0.84,0.1 1.26,0.14 l 0.6,0.06 c 0.43,0.05 0.87,0.09 1.3,0.12 0.229,0.02 0.46,0.04 0.689,0.05 0.29,0.03 0.591,0.05 0.881,0.06 0.43,0.03 0.869,0.05 1.3,0.07 0.56,0.03 1.12,0.05 1.69,0.06 0.68,0.02 1.379,0.03 2.07,0.03 44.18,0 80,-35.82 80,-80 0,-13.81 -3.5,-26.8 -9.66,-38.13 -0.61,-1.12 -1.241,-2.23 -1.9,-3.31 -0.341,-0.57 -0.69,-1.12 -1.051,-1.68 -0.639,-1 -1.299,-1.98 -1.979,-2.95 -0.07,-0.1 -0.141,-0.19 -0.21,-0.29 -1.46,-2.06 -3.02,-4.05 -4.681,-5.95 -1.25,-1.45 -2.559,-2.86 -3.92,-4.22 -1.229,-1.23 -2.5,-2.43 -3.809,-3.57 -5.49,-4.83 -11.64,-8.92 -18.31,-12.1 -1.1,-0.53 -2.211,-1.03 -3.341,-1.51 -2.389,-1.01 -4.849,-1.91 -7.349,-2.69 -2.51,-0.78 -5.06,-1.44 -7.67,-1.97 -5.21,-1.07 -10.601,-1.63 -16.12,-1.63 -44.18,0 -80,35.82 -80,80 0,0.69 0.01,1.38 0.03,2.06 0.01,0.56 0.029,1.11 0.06,1.67 0.02,0.52 0.049,1.04 0.08,1.55 0.01,0.15 0.02,0.3 0.03,0.45 0.04,0.48 0.069,0.96 0.12,1.44 0.01,0.12 0.02,0.23 0.029,0.35 0.051,0.57 0.111,1.14 0.181,1.7 v 0.02 c 0.069,0.6 0.14,1.2 0.23,1.8 0.06,0.45 0.12,0.9 0.2,1.35 0.08,0.6 0.179,1.18 0.29,1.77 0.019,0.16 0.05,0.31 0.08,0.47"
             style="fill:none;stroke:#000000;stroke-width:20;stroke-linecap:round;stroke-linejoin:round;stroke-miterlimit:4;stroke-dasharray:none;stroke-opacity:1"
             id="path365" /></g><g
           id="g367"
           transform="translate(256,226)"><path
             d="M 0,0 C -16.54,0 -30,13.46 -30,30 -30,46.54 -16.54,60 0,60 16.54,60 30,46.54 30,30 30,13.46 16.54,0 0,0 Z"
             style="fill:none;stroke:#000000;stroke-width:20;stroke-linecap:round;stroke-linejoin:round;stroke-miterlimit:4;stroke-dasharray:none;stroke-opacity:1"
             id="path369" /></g></g></g></g></svg>
