<svg xmlns="http://www.w3.org/2000/svg" version="1.1" xmlns:xlink="http://www.w3.org/1999/xlink" xmlns:svgjs="http://svgjs.com/svgjs" width="512" height="512" x="0" y="0" viewBox="0 0 96 96" style="enable-background:new 0 0 512 512" xml:space="preserve" class=""><g><path d="M96 32.67v-19.5a4.84 4.84 0 0 0-3.83-4.73V7.06A3.11 3.11 0 0 0 89.06 4h-5.6a3.11 3.11 0 0 0-2.29 1l-3.11 3.33H56.83A4.84 4.84 0 0 0 52 13.17v19.5a4.81 4.81 0 0 0 1.92 3.83A4.81 4.81 0 0 0 52 40.33V55H26.42V42.25a1 1 0 0 0-1-1H3.12a1 1 0 0 0-1 1V55H1a1 1 0 0 0-1 1v33.5a1 1 0 0 0 1 1h1.25V95a1 1 0 0 0 1 1H95a1 1 0 0 0 1-1V40.33a4.81 4.81 0 0 0-1.92-3.83A4.81 4.81 0 0 0 96 32.67ZM82.64 6.31a1.14 1.14 0 0 1 .82-.31h5.6a1.11 1.11 0 0 1 1.11 1.1v1.23h-9.39ZM54 13.17a2.84 2.84 0 0 1 2.83-2.84h34.34A2.84 2.84 0 0 1 94 13.17v19.5a2.83 2.83 0 0 1-2.83 2.83H56.83A2.83 2.83 0 0 1 54 32.67ZM94 88.5H54V40.33a2.83 2.83 0 0 1 2.83-2.83h34.34A2.83 2.83 0 0 1 94 40.33ZM4.12 43.25h20.3V55H4.12ZM2 57h50v3.25H2Zm0 5.25h50V88.5H2ZM4.25 90.5H52V94H4.25Zm49.75 0h7.25V94H54Zm9.25 3.5v-3.5h21.5V94ZM94 94h-7.25v-3.5H94Z" fill="#b56952" data-original="#000000" class=""></path><path d="M1 35.5h42a1 1 0 0 0 1-1V1a1 1 0 0 0-1-1H1a1 1 0 0 0-1 1v33.5a1 1 0 0 0 1 1ZM2 2h40v31.5H2Z" fill="#b56952" data-original="#000000" class=""></path><path d="M39 4H5a1 1 0 0 0-1 1v25.5a1 1 0 0 0 1 1h34a1 1 0 0 0 1-1V5a1 1 0 0 0-1-1ZM6 6h11.58v23.5H6Zm13.58 23.5V6h4.84v23.5Zm18.42 0H26.42V6H38Z" fill="#b56952" data-original="#000000" class=""></path><path d="M15 15.58a1 1 0 0 0-1 1v2.34a1 1 0 0 0 2 0v-2.34a1 1 0 0 0-1-1ZM29 19.92a1 1 0 0 0 1-1v-2.34a1 1 0 0 0-2 0v2.34a1 1 0 0 0 1 1ZM21.42 45.25H7.12a1 1 0 0 0-1 1V52a1 1 0 0 0 1 1h14.3a1 1 0 0 0 1-1v-5.75a1 1 0 0 0-1-1Zm-13.3 2h7.13V51H8.12ZM20.42 51h-3.17v-3.75h3.17ZM62.49 40.17h-3.74a2.67 2.67 0 1 0 0 5.33h3.74a2.67 2.67 0 1 0 0-5.33Zm0 3.33h-3.74a.67.67 0 1 1 0-1.33h3.74a.67.67 0 1 1 0 1.33ZM58.75 17.58h3.74a2.67 2.67 0 1 0 0-5.33h-3.74a2.67 2.67 0 1 0 0 5.33Zm0-3.33h3.74a.67.67 0 1 1 0 1.33h-3.74a.67.67 0 1 1 0-1.33Z" fill="#b56952" data-original="#000000" class=""></path></g></svg>